<?xml version="1.0" encoding="UTF-8"?>
<!DOCTYPE svg PUBLIC "-//W3C//DTD SVG 1.1//EN" "http://www.w3.org/Graphics/SVG/1.1/DTD/svg11.dtd">
<svg xmlns="http://www.w3.org/2000/svg" version="1.1" width="512px" height="512px" style="shape-rendering:geometricPrecision; text-rendering:geometricPrecision; image-rendering:optimizeQuality; fill-rule:evenodd; clip-rule:evenodd" xmlns:xlink="http://www.w3.org/1999/xlink">
<g><path style="opacity:0.957" fill="#000101" d="M 477.5,-0.5 C 482.5,-0.5 487.5,-0.5 492.5,-0.5C 502.47,4.44235 506.303,12.4424 504,23.5C 493.93,47.7217 483.097,71.555 471.5,95C 468.167,97 464.833,97 461.5,95C 456.667,88.8333 451.833,82.6667 447,76.5C 425.167,93 403.333,109.5 381.5,126C 372.146,131.991 362.813,131.991 353.5,126C 343.869,118.038 334.536,109.704 325.5,101C 324.5,100.333 323.5,100.333 322.5,101C 278.5,134 234.5,167 190.5,200C 183.119,203.732 175.452,204.398 167.5,202C 156.387,194.554 145.554,186.721 135,178.5C 102.833,202.667 70.6667,226.833 38.5,251C 33.9617,253.303 29.795,252.803 26,249.5C 20,241.5 14,233.5 8,225.5C 6.51674,222.298 6.1834,218.964 7,215.5C 45.1667,186.667 83.3333,157.833 121.5,129C 131.332,124.115 140.999,124.448 150.5,130C 159.333,136.833 168.167,143.667 177,150.5C 222.167,116.667 267.333,82.8333 312.5,49C 321.697,44.1082 330.697,44.4415 339.5,50C 349.167,58.5 358.833,67 368.5,75.5C 385.346,63.2433 402.012,50.7433 418.5,38C 413.63,31.7614 409.13,25.2614 405,18.5C 404.494,15.3261 405.328,12.4927 407.5,10C 430.903,6.25263 454.237,2.75263 477.5,-0.5 Z"/></g>
<g><path style="opacity:1" fill="#56b489" d="M 481.5,14.5 C 483.857,14.3367 486.19,14.5034 488.5,15C 489.554,16.3876 489.72,17.8876 489,19.5C 481,37.5 473,55.5 465,73.5C 461.287,68.5756 457.454,63.7423 453.5,59C 451.246,57.8495 448.913,57.5162 446.5,58C 422.655,75.4231 398.988,93.0898 375.5,111C 372.041,114.114 368.041,115.114 363.5,114C 351.833,103.667 340.167,93.3333 328.5,83C 325.833,82.3333 323.167,82.3333 320.5,83C 273.678,118.244 226.678,153.244 179.5,188C 177.029,188.706 174.695,188.373 172.5,187C 161.5,178.667 150.5,170.333 139.5,162C 137.305,160.627 134.971,160.294 132.5,161C 100.5,185 68.5,209 36.5,233C 35.5,233.667 34.5,233.667 33.5,233C 29.7774,229.36 27.2774,225.193 26,220.5C 61.2176,193.615 96.7176,167.115 132.5,141C 134.5,140.333 136.5,140.333 138.5,141C 150.345,149.423 162.012,158.09 173.5,167C 175.833,167.667 178.167,167.667 180.5,167C 227.116,132.718 273.449,98.0515 319.5,63C 323.167,61 326.833,61 330.5,63C 341.833,73 353.167,83 364.5,93C 366.833,93.6667 369.167,93.6667 371.5,93C 393.09,76.9549 414.59,60.7883 436,44.5C 437.422,41.9699 437.755,39.3033 437,36.5C 433.692,31.6919 430.192,27.0252 426.5,22.5C 444.993,19.9477 463.326,17.281 481.5,14.5 Z"/></g>
<g><path style="opacity:0.966" fill="#010202" d="M 486.5,248.5 C 483.042,247.892 480.542,245.892 479,242.5C 478.667,218.833 478.333,195.167 478,171.5C 476.195,167.857 473.362,165.524 469.5,164.5C 443.003,163.336 416.336,163.17 389.5,164C 384.572,165.927 381.406,169.427 380,174.5C 379.333,277.833 379.333,381.167 380,484.5C 380.957,490.127 384.124,493.96 389.5,496C 395.157,496.499 400.824,496.666 406.5,496.5C 427.503,496.667 448.503,496.5 469.5,496C 472.937,494.895 475.437,492.728 477,489.5C 478.324,415.89 478.991,342.224 479,268.5C 480.48,265.183 482.98,263.183 486.5,262.5C 490.09,262.544 492.59,264.211 494,267.5C 494.667,340.833 494.667,414.167 494,487.5C 491.491,499.835 484.324,507.835 472.5,511.5C 443.5,511.5 414.5,511.5 385.5,511.5C 374.65,507.48 367.817,499.813 365,488.5C 364.333,382.833 364.333,277.167 365,171.5C 367.627,160.205 374.46,152.705 385.5,149C 414.5,148.333 443.5,148.333 472.5,149C 484.522,152.356 491.688,160.19 494,172.5C 494.667,195.833 494.667,219.167 494,242.5C 493.15,246.513 490.65,248.513 486.5,248.5 Z"/></g>
<g><path style="opacity:1" fill="#4bb4c8" d="M 469.5,164.5 C 448.497,164.333 427.497,164.5 406.5,165C 404.683,166.8 403.516,168.966 403,171.5C 402.333,277.167 402.333,382.833 403,488.5C 404.083,491.267 405.25,493.933 406.5,496.5C 400.824,496.666 395.157,496.499 389.5,496C 384.124,493.96 380.957,490.127 380,484.5C 379.333,381.167 379.333,277.833 380,174.5C 381.406,169.427 384.572,165.927 389.5,164C 416.336,163.17 443.003,163.336 469.5,164.5 Z"/></g>
<g><path style="opacity:1" fill="#56cfe5" d="M 469.5,164.5 C 473.362,165.524 476.195,167.857 478,171.5C 478.333,195.167 478.667,218.833 479,242.5C 480.542,245.892 483.042,247.892 486.5,248.5C 486.5,253.167 486.5,257.833 486.5,262.5C 482.98,263.183 480.48,265.183 479,268.5C 478.991,342.224 478.324,415.89 477,489.5C 475.437,492.728 472.937,494.895 469.5,496C 448.503,496.5 427.503,496.667 406.5,496.5C 405.25,493.933 404.083,491.267 403,488.5C 402.333,382.833 402.333,277.167 403,171.5C 403.516,168.966 404.683,166.8 406.5,165C 427.497,164.5 448.497,164.333 469.5,164.5 Z"/></g>
<g><path style="opacity:0.966" fill="#010000" d="M 318.5,511.5 C 289.5,511.5 260.5,511.5 231.5,511.5C 219.213,507.704 212.046,499.371 210,486.5C 209.333,406.5 209.333,326.5 210,246.5C 211.989,235.345 218.156,227.512 228.5,223C 243.769,221.856 259.102,221.356 274.5,221.5C 288.833,221.667 303.167,221.833 317.5,222C 328.667,225.167 335.833,232.333 339,243.5C 339.667,325.5 339.667,407.5 339,489.5C 335.741,500.256 328.908,507.589 318.5,511.5 Z"/></g>
<g><path style="opacity:1" fill="#e24a4b" d="M 235.5,237.5 C 240.875,237.172 246.208,237.505 251.5,238.5C 249.806,240.554 248.639,242.888 248,245.5C 247.333,326.167 247.333,406.833 248,487.5C 249.033,490.784 250.533,493.784 252.5,496.5C 246.491,496.666 240.491,496.499 234.5,496C 229.938,494.373 227.105,491.206 226,486.5C 225.333,406.167 225.333,325.833 226,245.5C 227.956,241.288 231.123,238.621 235.5,237.5 Z"/></g>
<g><path style="opacity:1" fill="#fb6e70" d="M 235.5,237.5 C 261.33,236.337 287.33,236.17 313.5,237C 318.573,238.406 322.073,241.572 324,246.5C 324.667,326.5 324.667,406.5 324,486.5C 322.167,491 319,494.167 314.5,496C 293.836,496.5 273.169,496.667 252.5,496.5C 250.533,493.784 249.033,490.784 248,487.5C 247.333,406.833 247.333,326.167 248,245.5C 248.639,242.888 249.806,240.554 251.5,238.5C 246.208,237.505 240.875,237.172 235.5,237.5 Z"/></g>
<g><path style="opacity:0.965" fill="#000000" d="M 163.5,511.5 C 134.5,511.5 105.5,511.5 76.5,511.5C 66.5187,507.684 59.6854,500.684 56,490.5C 55.3333,475.5 55.3333,460.5 56,445.5C 57.5707,443.077 59.7374,441.744 62.5,441.5C 66.0897,441.544 68.5897,443.211 70,446.5C 70.3333,459.833 70.6667,473.167 71,486.5C 72.8333,491 76,494.167 80.5,496C 86.1569,496.499 91.8236,496.666 97.5,496.5C 118.169,496.667 138.836,496.5 159.5,496C 163.186,494.911 166.019,492.745 168,489.5C 169.654,432.891 169.988,376.225 169,319.5C 167.167,315 164,311.833 159.5,310C 132.997,309.17 106.663,309.337 80.5,310.5C 75.9102,311.921 72.7435,314.921 71,319.5C 70.6667,353.833 70.3333,388.167 70,422.5C 68.0867,425.28 65.5867,426.947 62.5,427.5C 59.8045,427.067 57.6379,425.734 56,423.5C 55.3333,387.833 55.3333,352.167 56,316.5C 59.1667,305.333 66.3333,298.167 77.5,295C 105.833,294.333 134.167,294.333 162.5,295C 176.231,299.065 183.731,308.232 185,322.5C 185.667,376.5 185.667,430.5 185,484.5C 183.513,498.193 176.346,507.193 163.5,511.5 Z"/></g>
<g><path style="opacity:1" fill="#f0c32c" d="M 80.5,310.5 C 86.1764,310.334 91.8431,310.501 97.5,311C 95.9588,312.579 94.7922,314.413 94,316.5C 93.3333,374.167 93.3333,431.833 94,489.5C 95.1799,491.86 96.3466,494.193 97.5,496.5C 91.8236,496.666 86.1569,496.499 80.5,496C 76,494.167 72.8333,491 71,486.5C 70.6667,473.167 70.3333,459.833 70,446.5C 68.5897,443.211 66.0897,441.544 62.5,441.5C 62.5,436.833 62.5,432.167 62.5,427.5C 65.5867,426.947 68.0867,425.28 70,422.5C 70.3333,388.167 70.6667,353.833 71,319.5C 72.7435,314.921 75.9102,311.921 80.5,310.5 Z"/></g>
<g><path style="opacity:1" fill="#f9db5f" d="M 80.5,310.5 C 106.663,309.337 132.997,309.17 159.5,310C 164,311.833 167.167,315 169,319.5C 169.988,376.225 169.654,432.891 168,489.5C 166.019,492.745 163.186,494.911 159.5,496C 138.836,496.5 118.169,496.667 97.5,496.5C 96.3466,494.193 95.1799,491.86 94,489.5C 93.3333,431.833 93.3333,374.167 94,316.5C 94.7922,314.413 95.9588,312.579 97.5,311C 91.8431,310.501 86.1764,310.334 80.5,310.5 Z"/></g>
</svg>
