<svg xmlns="http://www.w3.org/2000/svg" xmlns:xlink="http://www.w3.org/1999/xlink" width="43" zoomAndPan="magnify" viewBox="0 0 32.25 30.75" height="41" preserveAspectRatio="xMidYMid meet" version="1.0"><defs><clipPath id="28ad0df89d"><path d="M 0 0.226562 L 31.515625 0.226562 L 31.515625 30.277344 L 0 30.277344 Z M 0 0.226562 " clip-rule="nonzero"/></clipPath><clipPath id="0b76802b4e"><path d="M 1.503906 0.996094 L 30.085938 0.996094 L 30.085938 29.582031 L 1.503906 29.582031 Z M 1.503906 0.996094 " clip-rule="nonzero"/></clipPath></defs><g clip-path="url(#28ad0df89d)"><path fill="#ffffff" d="M 0 0.226562 L 31.515625 0.226562 L 31.515625 30.277344 L 0 30.277344 Z M 0 0.226562 " fill-opacity="1" fill-rule="nonzero"/><path fill="#ffffff" d="M 0 0.226562 L 31.515625 0.226562 L 31.515625 30.277344 L 0 30.277344 Z M 0 0.226562 " fill-opacity="1" fill-rule="nonzero"/></g><g clip-path="url(#0b76802b4e)"><path fill="#ec7e29" d="M 15.796875 0.996094 C 19.742188 0.996094 23.316406 2.597656 25.902344 5.183594 C 28.488281 7.769531 30.089844 11.34375 30.089844 15.289062 C 30.089844 19.238281 28.488281 22.8125 25.902344 25.398438 C 23.316406 27.984375 19.742188 29.582031 15.796875 29.582031 C 11.847656 29.582031 8.277344 27.984375 5.6875 25.398438 C 3.101562 22.8125 1.503906 19.238281 1.503906 15.289062 C 1.503906 11.34375 3.101562 7.769531 5.6875 5.183594 C 8.277344 2.597656 11.847656 0.996094 15.796875 0.996094 " fill-opacity="1" fill-rule="nonzero"/></g><path fill="#f9a825" d="M 15.796875 3 C 19.191406 3 22.261719 4.375 24.488281 6.601562 C 26.710938 8.824219 28.085938 11.894531 28.085938 15.289062 C 28.085938 18.683594 26.710938 21.757812 24.488281 23.980469 C 22.261719 26.207031 19.191406 27.582031 15.796875 27.582031 C 12.402344 27.582031 9.328125 26.207031 7.105469 23.980469 C 4.882812 21.757812 3.503906 18.683594 3.503906 15.289062 C 3.503906 11.894531 4.882812 8.824219 7.105469 6.601562 C 9.328125 4.375 12.402344 3 15.796875 3 " fill-opacity="1" fill-rule="nonzero"/><path fill="#f5f5f5" d="M 17.921875 14.1875 L 17.921875 20.644531 C 18.15625 20.496094 18.457031 20.265625 18.800781 19.902344 C 18.902344 19.769531 19.074219 19.695312 19.25 19.722656 C 19.511719 19.757812 19.695312 20.003906 19.65625 20.265625 C 19.542969 21.070312 18.960938 22.109375 18.183594 22.890625 C 17.496094 23.585938 16.644531 24.09375 15.796875 24.09375 C 15.210938 24.09375 14.679688 23.851562 14.292969 23.46875 C 13.910156 23.082031 13.667969 22.550781 13.667969 21.964844 L 13.667969 15.507812 C 13.433594 15.65625 13.136719 15.890625 12.789062 16.25 C 12.6875 16.382812 12.519531 16.457031 12.34375 16.429688 C 12.078125 16.394531 11.898438 16.152344 11.933594 15.886719 C 12.050781 15.085938 12.632812 14.042969 13.40625 13.261719 C 14.09375 12.566406 14.949219 12.0625 15.796875 12.0625 C 16.382812 12.0625 16.914062 12.300781 17.296875 12.683594 C 17.683594 13.070312 17.921875 13.601562 17.921875 14.1875 " fill-opacity="1" fill-rule="evenodd"/><path fill="#f5f5f5" d="M 15.25 6.488281 C 15.871094 6.488281 16.433594 6.742188 16.839844 7.148438 C 17.246094 7.554688 17.5 8.117188 17.5 8.738281 C 17.5 9.359375 17.246094 9.921875 16.839844 10.328125 C 16.433594 10.734375 15.871094 10.988281 15.25 10.988281 C 14.628906 10.988281 14.066406 10.734375 13.660156 10.328125 C 13.25 9.921875 13 9.359375 13 8.738281 C 13 8.117188 13.25 7.554688 13.660156 7.148438 C 14.066406 6.742188 14.628906 6.488281 15.25 6.488281 " fill-opacity="1" fill-rule="evenodd"/></svg>