<svg xmlns="http://www.w3.org/2000/svg" xmlns:xlink="http://www.w3.org/1999/xlink" width="43" zoomAndPan="magnify" viewBox="0 0 32.25 30.75" height="41" preserveAspectRatio="xMidYMid meet" version="1.0"><defs><clipPath id="505d091e47"><path d="M 16 15 L 30.398438 15 L 30.398438 29.507812 L 16 29.507812 Z M 16 15 " clip-rule="nonzero"/></clipPath><clipPath id="d7bec93c3f"><path d="M 1.082031 0.925781 L 27 0.925781 L 27 7 L 1.082031 7 Z M 1.082031 0.925781 " clip-rule="nonzero"/></clipPath></defs><path fill="#ff9800" d="M 24.257812 25.425781 L 3.816406 25.425781 C 3.066406 25.425781 2.453125 24.8125 2.453125 24.066406 L 2.453125 6.371094 L 25.621094 6.371094 L 25.621094 24.066406 C 25.621094 24.8125 25.007812 25.425781 24.257812 25.425781 Z M 24.257812 25.425781 " fill-opacity="1" fill-rule="nonzero"/><g clip-path="url(#505d091e47)"><path fill="#43a047" d="M 30.390625 22.703125 C 30.390625 26.460938 27.339844 29.507812 23.578125 29.507812 C 19.8125 29.507812 16.761719 26.460938 16.761719 22.703125 C 16.761719 18.945312 19.8125 15.898438 23.578125 15.898438 C 27.339844 15.898438 30.390625 18.945312 30.390625 22.703125 Z M 30.390625 22.703125 " fill-opacity="1" fill-rule="nonzero"/></g><path fill="#ffffff" d="M 22.214844 18.621094 L 24.941406 18.621094 L 24.941406 26.789062 L 22.214844 26.789062 Z M 22.214844 18.621094 " fill-opacity="1" fill-rule="nonzero"/><path fill="#ffffff" d="M 19.488281 21.34375 L 27.664062 21.34375 L 27.664062 24.066406 L 19.488281 24.066406 Z M 19.488281 21.34375 " fill-opacity="1" fill-rule="nonzero"/><path fill="#754600" d="M 5.179688 22.023438 L 11.3125 22.023438 L 11.3125 22.703125 L 5.179688 22.703125 Z M 9.265625 18.621094 L 10.628906 18.621094 L 10.628906 21.34375 L 9.265625 21.34375 Z M 9.265625 18.621094 " fill-opacity="1" fill-rule="nonzero"/><path fill="#754600" d="M 9.949219 17.257812 L 8.585938 19.300781 L 11.3125 19.300781 Z M 5.859375 18.621094 L 7.222656 18.621094 L 7.222656 21.34375 L 5.859375 21.34375 Z M 5.859375 18.621094 " fill-opacity="1" fill-rule="nonzero"/><path fill="#754600" d="M 6.542969 17.257812 L 5.179688 19.300781 L 7.902344 19.300781 Z M 6.542969 17.257812 " fill-opacity="1" fill-rule="nonzero"/><g clip-path="url(#d7bec93c3f)"><path fill="#ffaa2e" d="M 26.984375 6.371094 L 1.089844 6.371094 L 1.089844 2.285156 C 1.089844 1.535156 1.703125 0.925781 2.453125 0.925781 L 25.621094 0.925781 C 26.371094 0.925781 26.984375 1.535156 26.984375 2.285156 Z M 26.984375 6.371094 " fill-opacity="1" fill-rule="nonzero"/></g></svg>