<svg xmlns="http://www.w3.org/2000/svg" xmlns:xlink="http://www.w3.org/1999/xlink" width="43" zoomAndPan="magnify" viewBox="0 0 32.25 30.75" height="41" preserveAspectRatio="xMidYMid meet" version="1.0"><defs><clipPath id="ae426757b6"><path d="M 0 0.226562 L 31.515625 0.226562 L 31.515625 30.277344 L 0 30.277344 Z M 0 0.226562 " clip-rule="nonzero"/></clipPath><clipPath id="aac6d0582a"><path d="M 26 11 L 29.863281 11 L 29.863281 14 L 26 14 Z M 26 11 " clip-rule="nonzero"/></clipPath><clipPath id="3211705941"><path d="M 2.011719 23 L 24 23 L 24 29.628906 L 2.011719 29.628906 Z M 2.011719 23 " clip-rule="nonzero"/></clipPath><clipPath id="bde5957fb1"><path d="M 2.011719 1.042969 L 10 1.042969 L 10 9 L 2.011719 9 Z M 2.011719 1.042969 " clip-rule="nonzero"/></clipPath><clipPath id="260b78b905"><path d="M 2.011719 1.042969 L 24 1.042969 L 24 24 L 2.011719 24 Z M 2.011719 1.042969 " clip-rule="nonzero"/></clipPath><clipPath id="799a41ffbe"><path d="M 2.011719 1.042969 L 12 1.042969 L 12 11 L 2.011719 11 Z M 2.011719 1.042969 " clip-rule="nonzero"/></clipPath><clipPath id="09952c0def"><path d="M 2.011719 1.042969 L 29.863281 1.042969 L 29.863281 29.628906 L 2.011719 29.628906 Z M 2.011719 1.042969 " clip-rule="nonzero"/></clipPath></defs><g clip-path="url(#ae426757b6)"><path fill="#ffffff" d="M 0 0.226562 L 31.515625 0.226562 L 31.515625 30.277344 L 0 30.277344 Z M 0 0.226562 " fill-opacity="1" fill-rule="nonzero"/><path fill="#ffffff" d="M 0 0.226562 L 31.515625 0.226562 L 31.515625 30.277344 L 0 30.277344 Z M 0 0.226562 " fill-opacity="1" fill-rule="nonzero"/></g><path fill="#f2f2f2" d="M 22.175781 15.335938 L 25.054688 15.335938 C 25.1875 15.335938 25.300781 15.382812 25.394531 15.476562 C 25.488281 15.566406 25.535156 15.679688 25.535156 15.8125 L 25.535156 16.765625 C 25.535156 16.898438 25.488281 17.007812 25.394531 17.101562 C 25.300781 17.195312 25.1875 17.242188 25.054688 17.242188 L 22.175781 17.242188 C 22.042969 17.242188 21.929688 17.195312 21.835938 17.101562 C 21.742188 17.007812 21.695312 16.898438 21.695312 16.765625 L 21.695312 15.8125 C 21.695312 15.679688 21.742188 15.566406 21.835938 15.476562 C 21.929688 15.382812 22.042969 15.335938 22.175781 15.335938 Z M 22.175781 15.335938 " fill-opacity="1" fill-rule="nonzero"/><path fill="#e3a76f" d="M 28.414062 13.429688 L 28.414062 19.148438 C 28.414062 19.335938 28.375 19.519531 28.304688 19.695312 C 28.230469 19.867188 28.125 20.023438 27.992188 20.15625 C 27.855469 20.292969 27.699219 20.394531 27.523438 20.46875 C 27.347656 20.539062 27.164062 20.578125 26.972656 20.578125 L 20.253906 20.578125 C 20.066406 20.578125 19.882812 20.539062 19.703125 20.46875 C 19.527344 20.394531 19.371094 20.292969 19.238281 20.15625 C 19.101562 20.023438 19 19.867188 18.925781 19.695312 C 18.851562 19.519531 18.816406 19.335938 18.816406 19.148438 L 18.816406 13.429688 Z M 25.535156 16.765625 L 25.535156 15.8125 C 25.535156 15.679688 25.488281 15.566406 25.394531 15.476562 C 25.300781 15.382812 25.1875 15.335938 25.054688 15.335938 L 22.175781 15.335938 C 22.042969 15.335938 21.929688 15.382812 21.835938 15.476562 C 21.742188 15.566406 21.695312 15.679688 21.695312 15.8125 L 21.695312 16.765625 C 21.695312 16.898438 21.742188 17.007812 21.835938 17.101562 C 21.929688 17.195312 22.042969 17.242188 22.175781 17.242188 L 25.054688 17.242188 C 25.1875 17.242188 25.300781 17.195312 25.394531 17.101562 C 25.488281 17.007812 25.535156 16.898438 25.535156 16.765625 Z M 25.535156 16.765625 " fill-opacity="1" fill-rule="nonzero"/><g clip-path="url(#aac6d0582a)"><path fill="#f2f2f2" d="M 29.375 11.523438 L 29.375 12.953125 C 29.375 13.085938 29.328125 13.199219 29.234375 13.289062 C 29.140625 13.382812 29.027344 13.429688 28.894531 13.429688 L 26.015625 13.429688 L 28.414062 11.046875 L 28.894531 11.046875 C 29.027344 11.046875 29.140625 11.09375 29.234375 11.1875 C 29.328125 11.28125 29.375 11.394531 29.375 11.523438 Z M 29.375 11.523438 " fill-opacity="1" fill-rule="nonzero"/></g><path fill="#c18f5f" d="M 28.414062 11.046875 L 26.015625 13.429688 L 23.613281 13.429688 L 26.015625 11.046875 Z M 28.414062 11.046875 " fill-opacity="1" fill-rule="nonzero"/><path fill="#f2f2f2" d="M 26.015625 11.046875 L 23.613281 13.429688 L 21.214844 13.429688 L 23.613281 11.046875 Z M 26.015625 11.046875 " fill-opacity="1" fill-rule="nonzero"/><path fill="#c18f5f" d="M 23.613281 11.046875 L 21.214844 13.429688 L 18.816406 13.429688 L 21.214844 11.046875 Z M 23.613281 11.046875 " fill-opacity="1" fill-rule="nonzero"/><path fill="#f2f2f2" d="M 21.214844 11.046875 L 18.816406 13.429688 L 18.335938 13.429688 C 18.203125 13.429688 18.089844 13.382812 17.996094 13.289062 C 17.902344 13.199219 17.855469 13.085938 17.855469 12.953125 L 17.855469 11.523438 C 17.855469 11.394531 17.902344 11.28125 17.996094 11.1875 C 18.089844 11.09375 18.203125 11.046875 18.335938 11.046875 Z M 21.214844 11.046875 " fill-opacity="1" fill-rule="nonzero"/><path fill="#c39160" d="M 18.816406 13.429688 L 28.414062 13.429688 L 28.414062 14.859375 L 18.816406 14.859375 Z M 18.816406 13.429688 " fill-opacity="1" fill-rule="nonzero"/><g clip-path="url(#3211705941)"><path fill="#ffc247" d="M 23.613281 23.910156 L 23.613281 28.050781 C 23.359375 27.550781 22.949219 27.285156 22.386719 27.246094 C 21.050781 27.246094 21.050781 29.152344 19.71875 29.152344 C 18.382812 29.152344 18.382812 27.246094 17.050781 27.246094 C 15.714844 27.246094 15.714844 29.152344 14.386719 29.152344 C 13.058594 29.152344 13.050781 27.246094 11.71875 27.246094 C 10.382812 27.246094 10.390625 29.152344 9.054688 29.152344 C 7.722656 29.152344 7.722656 27.246094 6.390625 27.246094 C 5.0625 27.246094 5.058594 29.152344 3.722656 29.152344 C 3.164062 29.113281 2.757812 28.847656 2.5 28.351562 L 2.5 23.910156 L 3.941406 23.910156 C 3.941406 24.042969 3.988281 24.15625 4.082031 24.25 C 4.175781 24.339844 4.289062 24.386719 4.417969 24.386719 C 4.550781 24.386719 4.664062 24.339844 4.757812 24.25 C 4.851562 24.15625 4.898438 24.042969 4.898438 23.910156 L 5.859375 23.910156 C 5.859375 24.042969 5.90625 24.15625 6 24.25 C 6.09375 24.339844 6.207031 24.386719 6.339844 24.386719 C 6.472656 24.386719 6.585938 24.339844 6.679688 24.25 C 6.773438 24.15625 6.820312 24.042969 6.820312 23.910156 L 7.777344 23.910156 C 7.777344 24.042969 7.824219 24.15625 7.917969 24.25 C 8.011719 24.339844 8.125 24.386719 8.257812 24.386719 C 8.390625 24.386719 8.503906 24.339844 8.597656 24.25 C 8.691406 24.15625 8.738281 24.042969 8.738281 23.910156 L 9.699219 23.910156 C 9.699219 24.042969 9.746094 24.15625 9.839844 24.25 C 9.933594 24.339844 10.046875 24.386719 10.179688 24.386719 C 10.3125 24.386719 10.425781 24.339844 10.519531 24.25 C 10.609375 24.15625 10.65625 24.042969 10.65625 23.910156 L 11.617188 23.910156 C 11.617188 24.042969 11.664062 24.15625 11.757812 24.25 C 11.851562 24.339844 11.964844 24.386719 12.097656 24.386719 C 12.230469 24.386719 12.34375 24.339844 12.4375 24.25 C 12.53125 24.15625 12.578125 24.042969 12.578125 23.910156 L 13.539062 23.910156 C 13.539062 24.042969 13.585938 24.15625 13.679688 24.25 C 13.773438 24.339844 13.882812 24.386719 14.015625 24.386719 C 14.148438 24.386719 14.261719 24.339844 14.355469 24.25 C 14.449219 24.15625 14.496094 24.042969 14.496094 23.910156 L 15.457031 23.910156 C 15.457031 24.042969 15.503906 24.15625 15.597656 24.25 C 15.691406 24.339844 15.804688 24.386719 15.9375 24.386719 C 16.070312 24.386719 16.183594 24.339844 16.277344 24.25 C 16.371094 24.15625 16.417969 24.042969 16.417969 23.910156 L 17.375 23.910156 C 17.375 24.042969 17.421875 24.15625 17.515625 24.25 C 17.609375 24.339844 17.722656 24.386719 17.855469 24.386719 C 17.988281 24.386719 18.101562 24.339844 18.195312 24.25 C 18.289062 24.15625 18.335938 24.042969 18.335938 23.910156 L 19.296875 23.910156 C 19.296875 24.042969 19.34375 24.15625 19.4375 24.25 C 19.53125 24.339844 19.644531 24.386719 19.777344 24.386719 C 19.90625 24.386719 20.019531 24.339844 20.113281 24.25 C 20.207031 24.15625 20.253906 24.042969 20.253906 23.910156 L 21.214844 23.910156 C 21.214844 24.042969 21.261719 24.15625 21.355469 24.25 C 21.449219 24.339844 21.5625 24.386719 21.695312 24.386719 C 21.828125 24.386719 21.941406 24.339844 22.035156 24.25 C 22.128906 24.15625 22.175781 24.042969 22.175781 23.910156 Z M 23.613281 23.910156 " fill-opacity="1" fill-rule="nonzero"/></g><path fill="#f2f2f2" d="M 5.859375 20.578125 L 8.738281 17.71875 L 8.796875 17.660156 C 9.078125 17.9375 9.21875 18.277344 9.21875 18.671875 L 9.21875 19.625 C 9.21875 19.8125 9.183594 19.996094 9.109375 20.171875 C 9.035156 20.34375 8.933594 20.5 8.796875 20.632812 C 8.660156 20.769531 8.507812 20.871094 8.328125 20.945312 C 8.152344 21.015625 7.96875 21.054688 7.777344 21.054688 L 6.820312 21.054688 C 6.421875 21.054688 6.082031 20.914062 5.800781 20.632812 Z M 5.859375 20.578125 " fill-opacity="1" fill-rule="nonzero"/><path fill="#f2f2f2" d="M 7.777344 17.242188 C 8.175781 17.242188 8.515625 17.382812 8.796875 17.660156 L 8.738281 17.71875 L 5.859375 20.578125 L 5.800781 20.632812 C 5.519531 20.355469 5.378906 20.019531 5.378906 19.625 L 5.378906 18.671875 C 5.378906 18.480469 5.417969 18.296875 5.488281 18.125 C 5.5625 17.949219 5.667969 17.792969 5.800781 17.660156 C 5.9375 17.527344 6.09375 17.421875 6.269531 17.351562 C 6.445312 17.277344 6.628906 17.242188 6.820312 17.242188 Z M 7.777344 17.242188 " fill-opacity="1" fill-rule="nonzero"/><path fill="#f2f2f2" d="M 5.859375 14.382812 L 8.738281 11.523438 L 8.796875 11.46875 C 9.078125 11.746094 9.21875 12.082031 9.21875 12.476562 L 9.21875 13.429688 C 9.21875 13.621094 9.183594 13.800781 9.109375 13.976562 C 9.035156 14.152344 8.933594 14.304688 8.796875 14.441406 C 8.660156 14.574219 8.507812 14.679688 8.328125 14.75 C 8.152344 14.824219 7.96875 14.859375 7.777344 14.859375 L 6.820312 14.859375 C 6.421875 14.859375 6.082031 14.71875 5.800781 14.441406 Z M 5.859375 14.382812 " fill-opacity="1" fill-rule="nonzero"/><path fill="#f2f2f2" d="M 7.777344 11.046875 C 8.175781 11.046875 8.515625 11.1875 8.796875 11.46875 L 8.738281 11.523438 L 5.859375 14.382812 L 5.800781 14.441406 C 5.519531 14.160156 5.378906 13.824219 5.378906 13.429688 L 5.378906 12.476562 C 5.378906 12.289062 5.417969 12.105469 5.488281 11.929688 C 5.5625 11.753906 5.667969 11.601562 5.800781 11.464844 C 5.9375 11.332031 6.09375 11.230469 6.269531 11.15625 C 6.445312 11.085938 6.628906 11.046875 6.820312 11.046875 Z M 7.777344 11.046875 " fill-opacity="1" fill-rule="nonzero"/><g clip-path="url(#bde5957fb1)"><path fill="#f2f2f2" d="M 9.699219 1.519531 L 9.699219 7.238281 C 9.703125 7.425781 9.667969 7.609375 9.597656 7.789062 C 9.527344 7.964844 9.421875 8.121094 9.285156 8.257812 C 9.148438 8.390625 8.992188 8.492188 8.816406 8.566406 C 8.636719 8.636719 8.449219 8.667969 8.257812 8.664062 L 2.5 8.664062 Z M 9.699219 1.519531 " fill-opacity="1" fill-rule="nonzero"/></g><g clip-path="url(#260b78b905)"><path fill="#ffe45c" d="M 19.296875 6.285156 C 19.296875 6.152344 19.25 6.039062 19.15625 5.945312 C 19.0625 5.855469 18.949219 5.808594 18.816406 5.808594 C 18.683594 5.808594 18.570312 5.855469 18.476562 5.945312 C 18.382812 6.039062 18.335938 6.152344 18.335938 6.285156 C 18.335938 6.414062 18.382812 6.527344 18.476562 6.621094 C 18.570312 6.714844 18.683594 6.761719 18.816406 6.761719 C 18.949219 6.761719 19.0625 6.714844 19.15625 6.621094 C 19.25 6.527344 19.296875 6.414062 19.296875 6.285156 Z M 20.734375 5.808594 C 20.601562 5.808594 20.488281 5.855469 20.394531 5.945312 C 20.300781 6.039062 20.253906 6.152344 20.253906 6.285156 C 20.253906 6.414062 20.300781 6.527344 20.394531 6.621094 C 20.488281 6.714844 20.601562 6.761719 20.734375 6.761719 C 20.867188 6.761719 20.980469 6.714844 21.074219 6.621094 C 21.167969 6.527344 21.214844 6.414062 21.214844 6.285156 C 21.214844 6.152344 21.167969 6.039062 21.074219 5.945312 C 20.980469 5.855469 20.867188 5.808594 20.734375 5.808594 Z M 8.738281 23.910156 C 8.738281 23.78125 8.691406 23.667969 8.597656 23.574219 C 8.503906 23.480469 8.390625 23.433594 8.257812 23.433594 C 8.125 23.433594 8.011719 23.480469 7.917969 23.574219 C 7.824219 23.667969 7.777344 23.78125 7.777344 23.910156 L 6.820312 23.910156 C 6.820312 23.78125 6.773438 23.667969 6.679688 23.574219 C 6.585938 23.480469 6.472656 23.433594 6.339844 23.433594 C 6.207031 23.433594 6.09375 23.480469 6 23.574219 C 5.90625 23.667969 5.859375 23.78125 5.859375 23.910156 L 4.898438 23.910156 C 4.898438 23.78125 4.851562 23.667969 4.757812 23.574219 C 4.664062 23.480469 4.550781 23.433594 4.417969 23.433594 C 4.289062 23.433594 4.175781 23.480469 4.082031 23.574219 C 3.988281 23.667969 3.941406 23.78125 3.941406 23.910156 L 2.5 23.910156 L 2.5 8.664062 L 8.257812 8.664062 C 8.449219 8.667969 8.636719 8.636719 8.816406 8.566406 C 8.992188 8.492188 9.148438 8.390625 9.285156 8.257812 C 9.421875 8.121094 9.527344 7.964844 9.597656 7.789062 C 9.667969 7.609375 9.703125 7.425781 9.699219 7.238281 L 9.699219 1.519531 L 21.214844 1.519531 C 21.535156 1.519531 21.839844 1.578125 22.132812 1.699219 C 22.425781 1.820312 22.6875 1.992188 22.910156 2.21875 C 23.136719 2.441406 23.308594 2.699219 23.433594 2.988281 C 23.554688 3.28125 23.613281 3.585938 23.613281 3.902344 L 23.613281 11.046875 L 18.335938 11.046875 C 18.203125 11.046875 18.089844 11.09375 17.996094 11.1875 C 17.902344 11.28125 17.855469 11.394531 17.855469 11.523438 L 17.855469 12.953125 C 17.855469 13.085938 17.902344 13.199219 17.996094 13.289062 C 18.089844 13.382812 18.203125 13.429688 18.335938 13.429688 L 18.816406 13.429688 L 18.816406 19.148438 C 18.816406 19.335938 18.851562 19.519531 18.925781 19.695312 C 19 19.867188 19.101562 20.023438 19.238281 20.15625 C 19.371094 20.292969 19.527344 20.394531 19.703125 20.46875 C 19.882812 20.539062 20.066406 20.578125 20.253906 20.578125 L 23.613281 20.578125 L 23.613281 23.910156 L 22.175781 23.910156 C 22.175781 23.78125 22.128906 23.667969 22.035156 23.574219 C 21.941406 23.480469 21.828125 23.433594 21.695312 23.433594 C 21.5625 23.433594 21.449219 23.480469 21.355469 23.574219 C 21.261719 23.667969 21.214844 23.78125 21.214844 23.910156 L 20.253906 23.910156 C 20.253906 23.78125 20.207031 23.667969 20.113281 23.574219 C 20.019531 23.480469 19.90625 23.433594 19.777344 23.433594 C 19.644531 23.433594 19.53125 23.480469 19.4375 23.574219 C 19.34375 23.667969 19.296875 23.78125 19.296875 23.910156 L 18.335938 23.910156 C 18.335938 23.78125 18.289062 23.667969 18.195312 23.574219 C 18.101562 23.480469 17.988281 23.433594 17.855469 23.433594 C 17.722656 23.433594 17.609375 23.480469 17.515625 23.574219 C 17.421875 23.667969 17.375 23.78125 17.375 23.910156 L 16.417969 23.910156 C 16.417969 23.78125 16.371094 23.667969 16.277344 23.574219 C 16.183594 23.480469 16.070312 23.433594 15.9375 23.433594 C 15.804688 23.433594 15.691406 23.480469 15.597656 23.574219 C 15.503906 23.667969 15.457031 23.78125 15.457031 23.910156 L 14.496094 23.910156 C 14.496094 23.78125 14.449219 23.667969 14.355469 23.574219 C 14.261719 23.480469 14.148438 23.433594 14.015625 23.433594 C 13.882812 23.433594 13.773438 23.480469 13.679688 23.574219 C 13.585938 23.667969 13.539062 23.78125 13.539062 23.910156 L 12.578125 23.910156 C 12.578125 23.78125 12.53125 23.667969 12.4375 23.574219 C 12.34375 23.480469 12.230469 23.433594 12.097656 23.433594 C 11.964844 23.433594 11.851562 23.480469 11.757812 23.574219 C 11.664062 23.667969 11.617188 23.78125 11.617188 23.910156 L 10.65625 23.910156 C 10.65625 23.78125 10.609375 23.667969 10.519531 23.574219 C 10.425781 23.480469 10.3125 23.433594 10.179688 23.433594 C 10.046875 23.433594 9.933594 23.480469 9.839844 23.574219 C 9.746094 23.667969 9.699219 23.78125 9.699219 23.910156 Z M 9.21875 19.625 L 9.21875 18.671875 C 9.21875 18.480469 9.183594 18.296875 9.109375 18.125 C 9.035156 17.949219 8.933594 17.792969 8.796875 17.660156 C 8.660156 17.527344 8.507812 17.421875 8.328125 17.351562 C 8.152344 17.277344 7.96875 17.242188 7.777344 17.242188 L 6.820312 17.242188 C 6.628906 17.242188 6.445312 17.277344 6.269531 17.351562 C 6.09375 17.421875 5.9375 17.527344 5.800781 17.660156 C 5.667969 17.792969 5.5625 17.949219 5.488281 18.125 C 5.417969 18.296875 5.378906 18.480469 5.378906 18.671875 L 5.378906 19.625 C 5.378906 19.8125 5.417969 19.996094 5.488281 20.171875 C 5.5625 20.34375 5.667969 20.5 5.800781 20.632812 C 5.9375 20.769531 6.09375 20.871094 6.269531 20.945312 C 6.445312 21.015625 6.628906 21.054688 6.820312 21.054688 L 7.777344 21.054688 C 7.96875 21.054688 8.152344 21.015625 8.328125 20.945312 C 8.507812 20.871094 8.660156 20.769531 8.796875 20.632812 C 8.933594 20.5 9.035156 20.34375 9.109375 20.171875 C 9.183594 19.996094 9.21875 19.8125 9.21875 19.625 Z M 9.21875 13.429688 L 9.21875 12.476562 C 9.21875 12.289062 9.183594 12.105469 9.109375 11.929688 C 9.035156 11.753906 8.933594 11.601562 8.796875 11.464844 C 8.660156 11.332031 8.507812 11.230469 8.328125 11.15625 C 8.152344 11.085938 7.96875 11.046875 7.777344 11.046875 L 6.820312 11.046875 C 6.628906 11.046875 6.445312 11.085938 6.269531 11.15625 C 6.09375 11.230469 5.9375 11.332031 5.800781 11.464844 C 5.667969 11.601562 5.5625 11.753906 5.488281 11.929688 C 5.417969 12.105469 5.378906 12.289062 5.378906 12.476562 L 5.378906 13.429688 C 5.378906 13.621094 5.417969 13.800781 5.488281 13.976562 C 5.5625 14.152344 5.667969 14.304688 5.800781 14.441406 C 5.9375 14.574219 6.09375 14.679688 6.269531 14.75 C 6.445312 14.824219 6.628906 14.859375 6.820312 14.859375 L 7.777344 14.859375 C 7.96875 14.859375 8.152344 14.824219 8.328125 14.75 C 8.507812 14.679688 8.660156 14.574219 8.796875 14.441406 C 8.933594 14.304688 9.035156 14.152344 9.109375 13.976562 C 9.183594 13.800781 9.21875 13.621094 9.21875 13.429688 Z M 9.21875 13.429688 " fill-opacity="1" fill-rule="nonzero"/></g><path fill="#ffa247" d="M 22.175781 23.910156 C 22.175781 24.042969 22.128906 24.15625 22.035156 24.25 C 21.941406 24.339844 21.828125 24.386719 21.695312 24.386719 C 21.5625 24.386719 21.449219 24.339844 21.355469 24.25 C 21.261719 24.15625 21.214844 24.042969 21.214844 23.910156 C 21.214844 23.78125 21.261719 23.667969 21.355469 23.574219 C 21.449219 23.480469 21.5625 23.433594 21.695312 23.433594 C 21.828125 23.433594 21.941406 23.480469 22.035156 23.574219 C 22.128906 23.667969 22.175781 23.78125 22.175781 23.910156 Z M 22.175781 23.910156 " fill-opacity="1" fill-rule="nonzero"/><path fill="#ffc247" d="M 21.214844 6.285156 C 21.214844 6.414062 21.167969 6.527344 21.074219 6.621094 C 20.980469 6.714844 20.867188 6.761719 20.734375 6.761719 C 20.601562 6.761719 20.488281 6.714844 20.394531 6.621094 C 20.300781 6.527344 20.253906 6.414062 20.253906 6.285156 C 20.253906 6.152344 20.300781 6.039062 20.394531 5.945312 C 20.488281 5.855469 20.601562 5.808594 20.734375 5.808594 C 20.867188 5.808594 20.980469 5.855469 21.074219 5.945312 C 21.167969 6.039062 21.214844 6.152344 21.214844 6.285156 Z M 21.214844 6.285156 " fill-opacity="1" fill-rule="nonzero"/><path fill="#ffa247" d="M 20.253906 23.910156 C 20.253906 24.042969 20.207031 24.15625 20.113281 24.25 C 20.019531 24.339844 19.90625 24.386719 19.777344 24.386719 C 19.644531 24.386719 19.53125 24.339844 19.4375 24.25 C 19.34375 24.15625 19.296875 24.042969 19.296875 23.910156 C 19.296875 23.78125 19.34375 23.667969 19.4375 23.574219 C 19.53125 23.480469 19.644531 23.433594 19.777344 23.433594 C 19.90625 23.433594 20.019531 23.480469 20.113281 23.574219 C 20.207031 23.667969 20.253906 23.78125 20.253906 23.910156 Z M 20.253906 23.910156 " fill-opacity="1" fill-rule="nonzero"/><path fill="#ffc247" d="M 19.296875 6.285156 C 19.296875 6.414062 19.25 6.527344 19.15625 6.621094 C 19.0625 6.714844 18.949219 6.761719 18.816406 6.761719 C 18.683594 6.761719 18.570312 6.714844 18.476562 6.621094 C 18.382812 6.527344 18.335938 6.414062 18.335938 6.285156 C 18.335938 6.152344 18.382812 6.039062 18.476562 5.945312 C 18.570312 5.855469 18.683594 5.808594 18.816406 5.808594 C 18.949219 5.808594 19.0625 5.855469 19.15625 5.945312 C 19.25 6.039062 19.296875 6.152344 19.296875 6.285156 Z M 19.296875 6.285156 " fill-opacity="1" fill-rule="nonzero"/><path fill="#ffa247" d="M 18.335938 23.910156 C 18.335938 24.042969 18.289062 24.15625 18.195312 24.25 C 18.101562 24.339844 17.988281 24.386719 17.855469 24.386719 C 17.722656 24.386719 17.609375 24.339844 17.515625 24.25 C 17.421875 24.15625 17.375 24.042969 17.375 23.910156 C 17.375 23.78125 17.421875 23.667969 17.515625 23.574219 C 17.609375 23.480469 17.722656 23.433594 17.855469 23.433594 C 17.988281 23.433594 18.101562 23.480469 18.195312 23.574219 C 18.289062 23.667969 18.335938 23.78125 18.335938 23.910156 Z M 18.335938 23.910156 " fill-opacity="1" fill-rule="nonzero"/><path fill="#ffa247" d="M 16.417969 23.910156 C 16.417969 24.042969 16.371094 24.15625 16.277344 24.25 C 16.183594 24.339844 16.070312 24.386719 15.9375 24.386719 C 15.804688 24.386719 15.691406 24.339844 15.597656 24.25 C 15.503906 24.15625 15.457031 24.042969 15.457031 23.910156 C 15.457031 23.78125 15.503906 23.667969 15.597656 23.574219 C 15.691406 23.480469 15.804688 23.433594 15.9375 23.433594 C 16.070312 23.433594 16.183594 23.480469 16.277344 23.574219 C 16.371094 23.667969 16.417969 23.78125 16.417969 23.910156 Z M 16.417969 23.910156 " fill-opacity="1" fill-rule="nonzero"/><path fill="#ffa247" d="M 14.496094 23.910156 C 14.496094 24.042969 14.449219 24.15625 14.355469 24.25 C 14.261719 24.339844 14.148438 24.386719 14.015625 24.386719 C 13.882812 24.386719 13.773438 24.339844 13.679688 24.25 C 13.585938 24.15625 13.539062 24.042969 13.539062 23.910156 C 13.539062 23.78125 13.585938 23.667969 13.679688 23.574219 C 13.773438 23.480469 13.882812 23.433594 14.015625 23.433594 C 14.148438 23.433594 14.261719 23.480469 14.355469 23.574219 C 14.449219 23.667969 14.496094 23.78125 14.496094 23.910156 Z M 14.496094 23.910156 " fill-opacity="1" fill-rule="nonzero"/><path fill="#ffa247" d="M 12.578125 23.910156 C 12.578125 24.042969 12.53125 24.15625 12.4375 24.25 C 12.34375 24.339844 12.230469 24.386719 12.097656 24.386719 C 11.964844 24.386719 11.851562 24.339844 11.757812 24.25 C 11.664062 24.15625 11.617188 24.042969 11.617188 23.910156 C 11.617188 23.78125 11.664062 23.667969 11.757812 23.574219 C 11.851562 23.480469 11.964844 23.433594 12.097656 23.433594 C 12.230469 23.433594 12.34375 23.480469 12.4375 23.574219 C 12.53125 23.667969 12.578125 23.78125 12.578125 23.910156 Z M 12.578125 23.910156 " fill-opacity="1" fill-rule="nonzero"/><path fill="#ffa247" d="M 10.65625 23.910156 C 10.65625 24.042969 10.609375 24.15625 10.519531 24.25 C 10.425781 24.339844 10.3125 24.386719 10.179688 24.386719 C 10.046875 24.386719 9.933594 24.339844 9.839844 24.25 C 9.746094 24.15625 9.699219 24.042969 9.699219 23.910156 C 9.699219 23.78125 9.746094 23.667969 9.839844 23.574219 C 9.933594 23.480469 10.046875 23.433594 10.179688 23.433594 C 10.3125 23.433594 10.425781 23.480469 10.519531 23.574219 C 10.609375 23.667969 10.65625 23.78125 10.65625 23.910156 Z M 10.65625 23.910156 " fill-opacity="1" fill-rule="nonzero"/><path fill="#ffa247" d="M 8.738281 23.910156 C 8.738281 24.042969 8.691406 24.15625 8.597656 24.25 C 8.503906 24.339844 8.390625 24.386719 8.257812 24.386719 C 8.125 24.386719 8.011719 24.339844 7.917969 24.25 C 7.824219 24.15625 7.777344 24.042969 7.777344 23.910156 C 7.777344 23.78125 7.824219 23.667969 7.917969 23.574219 C 8.011719 23.480469 8.125 23.433594 8.257812 23.433594 C 8.390625 23.433594 8.503906 23.480469 8.597656 23.574219 C 8.691406 23.667969 8.738281 23.78125 8.738281 23.910156 Z M 8.738281 23.910156 " fill-opacity="1" fill-rule="nonzero"/><path fill="#ffa247" d="M 6.820312 23.910156 C 6.820312 24.042969 6.773438 24.15625 6.679688 24.25 C 6.585938 24.339844 6.472656 24.386719 6.339844 24.386719 C 6.207031 24.386719 6.09375 24.339844 6 24.25 C 5.90625 24.15625 5.859375 24.042969 5.859375 23.910156 C 5.859375 23.78125 5.90625 23.667969 6 23.574219 C 6.09375 23.480469 6.207031 23.433594 6.339844 23.433594 C 6.472656 23.433594 6.585938 23.480469 6.679688 23.574219 C 6.773438 23.667969 6.820312 23.78125 6.820312 23.910156 Z M 6.820312 23.910156 " fill-opacity="1" fill-rule="nonzero"/><path fill="#ffa247" d="M 4.898438 23.910156 C 4.898438 24.042969 4.851562 24.15625 4.757812 24.25 C 4.664062 24.339844 4.550781 24.386719 4.417969 24.386719 C 4.289062 24.386719 4.175781 24.339844 4.082031 24.25 C 3.988281 24.15625 3.941406 24.042969 3.941406 23.910156 C 3.941406 23.78125 3.988281 23.667969 4.082031 23.574219 C 4.175781 23.480469 4.289062 23.433594 4.417969 23.433594 C 4.550781 23.433594 4.664062 23.480469 4.757812 23.574219 C 4.851562 23.667969 4.898438 23.78125 4.898438 23.910156 Z M 4.898438 23.910156 " fill-opacity="1" fill-rule="nonzero"/><g clip-path="url(#799a41ffbe)"><path fill="#ffc247" d="M 11.136719 8.664062 L 11.136719 1.519531 L 9.699219 1.519531 L 9.699219 7.238281 C 9.703125 7.425781 9.667969 7.609375 9.597656 7.789062 C 9.527344 7.964844 9.421875 8.121094 9.285156 8.257812 C 9.148438 8.390625 8.992188 8.492188 8.816406 8.566406 C 8.636719 8.636719 8.449219 8.667969 8.257812 8.664062 L 2.5 8.664062 L 2.5 10.09375 L 9.699219 10.09375 C 9.890625 10.097656 10.074219 10.066406 10.253906 9.996094 C 10.433594 9.921875 10.589844 9.820312 10.726562 9.683594 C 10.859375 9.550781 10.964844 9.394531 11.035156 9.21875 C 11.109375 9.039062 11.140625 8.855469 11.136719 8.664062 Z M 11.136719 8.664062 " fill-opacity="1" fill-rule="nonzero"/></g><path fill="#2b1505" d="M 21.214844 4.378906 C 21.214844 4.246094 21.167969 4.132812 21.074219 4.042969 C 20.980469 3.949219 20.867188 3.902344 20.734375 3.902344 L 16.894531 3.902344 C 16.765625 3.902344 16.652344 3.949219 16.558594 4.042969 C 16.464844 4.132812 16.417969 4.246094 16.417969 4.378906 C 16.417969 4.507812 16.464844 4.621094 16.558594 4.714844 C 16.652344 4.808594 16.765625 4.855469 16.894531 4.855469 L 20.734375 4.855469 C 20.867188 4.855469 20.980469 4.808594 21.074219 4.714844 C 21.167969 4.621094 21.214844 4.507812 21.214844 4.378906 Z M 21.214844 4.378906 " fill-opacity="1" fill-rule="nonzero"/><g clip-path="url(#09952c0def)"><path fill="#2b1505" d="M 28.894531 10.570312 L 24.09375 10.570312 L 24.09375 3.902344 C 24.09375 3.523438 24.019531 3.15625 23.875 2.808594 C 23.726562 2.457031 23.519531 2.148438 23.25 1.882812 C 22.980469 1.613281 22.667969 1.40625 22.316406 1.261719 C 21.964844 1.117188 21.597656 1.042969 21.214844 1.042969 L 9.699219 1.042969 C 9.636719 1.042969 9.574219 1.054688 9.515625 1.078125 C 9.457031 1.101562 9.40625 1.136719 9.359375 1.183594 L 2.164062 8.328125 C 2.125 8.367188 2.09375 8.414062 2.070312 8.464844 C 2.0625 8.480469 2.058594 8.496094 2.054688 8.507812 C 2.039062 8.550781 2.03125 8.59375 2.027344 8.636719 C 2.027344 8.644531 2.023438 8.65625 2.023438 8.664062 L 2.023438 28.351562 C 2.023438 28.453125 2.050781 28.546875 2.113281 28.628906 C 2.277344 28.921875 2.503906 29.15625 2.789062 29.332031 C 3.074219 29.511719 3.386719 29.609375 3.722656 29.628906 C 4.640625 29.628906 5.089844 28.988281 5.453125 28.472656 C 5.789062 27.996094 5.996094 27.722656 6.390625 27.722656 C 6.789062 27.722656 6.992188 27.992188 7.328125 28.46875 C 7.6875 28.984375 8.136719 29.628906 9.054688 29.628906 C 9.972656 29.628906 10.421875 28.984375 10.78125 28.46875 C 11.117188 27.992188 11.324219 27.722656 11.71875 27.722656 C 12.109375 27.722656 12.324219 27.992188 12.65625 28.472656 C 13.019531 28.988281 13.46875 29.628906 14.386719 29.628906 C 15.304688 29.628906 15.75 28.988281 16.109375 28.472656 C 16.445312 27.992188 16.652344 27.722656 17.050781 27.722656 C 17.449219 27.722656 17.65625 27.992188 17.988281 28.472656 C 18.351562 28.988281 18.800781 29.628906 19.71875 29.628906 C 20.636719 29.628906 21.085938 28.988281 21.445312 28.472656 C 21.78125 27.996094 21.988281 27.722656 22.386719 27.722656 C 22.730469 27.722656 22.9375 27.925781 23.222656 28.328125 C 23.359375 28.515625 23.535156 28.578125 23.761719 28.507812 C 23.984375 28.433594 24.09375 28.285156 24.09375 28.050781 L 24.09375 21.054688 L 26.972656 21.054688 C 27.226562 21.054688 27.472656 21.003906 27.707031 20.90625 C 27.945312 20.8125 28.152344 20.671875 28.332031 20.496094 C 28.511719 20.316406 28.648438 20.109375 28.746094 19.875 C 28.84375 19.644531 28.894531 19.398438 28.894531 19.148438 L 28.894531 13.90625 C 29.160156 13.90625 29.382812 13.8125 29.570312 13.628906 C 29.757812 13.441406 29.851562 13.214844 29.851562 12.953125 L 29.851562 11.523438 C 29.851562 11.261719 29.757812 11.035156 29.570312 10.851562 C 29.382812 10.664062 29.160156 10.570312 28.894531 10.570312 Z M 24.773438 12.953125 L 26.210938 11.523438 L 27.253906 11.523438 L 25.816406 12.953125 Z M 22.375 12.953125 L 23.8125 11.523438 L 24.855469 11.523438 L 23.414062 12.953125 Z M 19.972656 12.953125 L 21.414062 11.523438 L 22.457031 11.523438 L 21.015625 12.953125 Z M 18.617188 12.953125 L 18.335938 12.953125 L 18.335938 11.523438 L 20.058594 11.523438 Z M 9.21875 2.667969 L 9.21875 7.238281 C 9.226562 7.367188 9.207031 7.488281 9.164062 7.609375 C 9.117188 7.730469 9.046875 7.835938 8.957031 7.929688 C 8.863281 8.019531 8.757812 8.089844 8.636719 8.132812 C 8.515625 8.179688 8.386719 8.199219 8.257812 8.1875 L 3.660156 8.1875 Z M 23.136719 26.945312 C 22.898438 26.824219 22.648438 26.769531 22.386719 26.769531 C 21.46875 26.769531 21.019531 27.410156 20.660156 27.925781 C 20.324219 28.402344 20.117188 28.675781 19.71875 28.675781 C 19.320312 28.675781 19.113281 28.40625 18.777344 27.925781 C 18.417969 27.410156 17.96875 26.769531 17.050781 26.769531 C 16.132812 26.769531 15.683594 27.414062 15.324219 27.929688 C 14.988281 28.40625 14.78125 28.675781 14.386719 28.675781 C 13.996094 28.675781 13.78125 28.40625 13.449219 27.925781 C 13.085938 27.410156 12.636719 26.769531 11.71875 26.769531 C 10.800781 26.769531 10.355469 27.410156 9.996094 27.925781 C 9.660156 28.40625 9.453125 28.675781 9.054688 28.675781 C 8.65625 28.675781 8.449219 28.40625 8.113281 27.925781 C 7.753906 27.410156 7.308594 26.769531 6.390625 26.769531 C 5.476562 26.769531 5.023438 27.410156 4.664062 27.925781 C 4.328125 28.40625 4.121094 28.675781 3.722656 28.675781 C 3.417969 28.675781 3.226562 28.519531 2.980469 28.195312 L 2.980469 9.140625 L 8.257812 9.140625 C 8.515625 9.148438 8.761719 9.105469 9.003906 9.011719 C 9.242188 8.917969 9.449219 8.78125 9.632812 8.601562 C 9.8125 8.421875 9.953125 8.210938 10.046875 7.972656 C 10.140625 7.738281 10.1875 7.492188 10.179688 7.238281 L 10.179688 1.996094 L 21.214844 1.996094 C 21.46875 1.996094 21.714844 2.042969 21.949219 2.140625 C 22.183594 2.238281 22.394531 2.375 22.574219 2.554688 C 22.753906 2.734375 22.890625 2.9375 22.988281 3.171875 C 23.085938 3.40625 23.136719 3.648438 23.136719 3.902344 L 23.136719 10.570312 L 18.335938 10.570312 C 18.070312 10.570312 17.84375 10.664062 17.65625 10.851562 C 17.46875 11.035156 17.375 11.261719 17.375 11.523438 L 17.375 12.953125 C 17.375 13.214844 17.46875 13.441406 17.65625 13.628906 C 17.84375 13.8125 18.070312 13.90625 18.335938 13.90625 L 18.335938 19.148438 C 18.335938 19.398438 18.386719 19.644531 18.480469 19.875 C 18.578125 20.109375 18.71875 20.316406 18.898438 20.496094 C 19.078125 20.671875 19.285156 20.8125 19.519531 20.90625 C 19.757812 21.003906 20 21.054688 20.253906 21.054688 L 23.136719 21.054688 Z M 27.933594 19.148438 C 27.933594 19.410156 27.839844 19.636719 27.652344 19.820312 C 27.464844 20.007812 27.238281 20.101562 26.972656 20.101562 L 20.253906 20.101562 C 19.992188 20.101562 19.765625 20.007812 19.578125 19.820312 C 19.390625 19.636719 19.296875 19.410156 19.296875 19.148438 L 19.296875 13.90625 L 27.933594 13.90625 Z M 28.894531 12.953125 L 27.171875 12.953125 L 28.613281 11.523438 L 28.894531 11.523438 Z M 28.894531 12.953125 " fill-opacity="1" fill-rule="nonzero"/></g><path fill="#2b1505" d="M 25.054688 14.859375 L 22.175781 14.859375 C 21.910156 14.859375 21.683594 14.953125 21.496094 15.136719 C 21.308594 15.324219 21.214844 15.550781 21.214844 15.8125 L 21.214844 16.765625 C 21.214844 17.027344 21.308594 17.253906 21.496094 17.4375 C 21.683594 17.625 21.910156 17.71875 22.175781 17.71875 L 25.054688 17.71875 C 25.320312 17.71875 25.546875 17.625 25.734375 17.4375 C 25.921875 17.253906 26.015625 17.027344 26.015625 16.765625 L 26.015625 15.8125 C 26.015625 15.550781 25.921875 15.324219 25.734375 15.136719 C 25.546875 14.953125 25.320312 14.859375 25.054688 14.859375 Z M 25.054688 16.765625 L 22.175781 16.765625 L 22.175781 15.8125 L 25.054688 15.8125 Z M 25.054688 16.765625 " fill-opacity="1" fill-rule="nonzero"/><path fill="#2b1505" d="M 7.777344 10.570312 L 6.820312 10.570312 C 6.566406 10.570312 6.320312 10.621094 6.085938 10.714844 C 5.847656 10.8125 5.640625 10.949219 5.460938 11.128906 C 5.28125 11.308594 5.144531 11.515625 5.046875 11.746094 C 4.949219 11.980469 4.898438 12.222656 4.898438 12.476562 L 4.898438 13.429688 C 4.898438 13.683594 4.949219 13.925781 5.046875 14.160156 C 5.144531 14.394531 5.28125 14.597656 5.460938 14.777344 C 5.640625 14.957031 5.847656 15.09375 6.085938 15.191406 C 6.320312 15.289062 6.566406 15.335938 6.820312 15.335938 L 7.777344 15.335938 C 8.035156 15.335938 8.277344 15.289062 8.511719 15.191406 C 8.75 15.09375 8.957031 14.957031 9.136719 14.777344 C 9.316406 14.597656 9.453125 14.394531 9.550781 14.160156 C 9.648438 13.925781 9.699219 13.683594 9.699219 13.429688 L 9.699219 12.476562 C 9.699219 12.222656 9.648438 11.980469 9.550781 11.746094 C 9.453125 11.515625 9.316406 11.308594 9.136719 11.128906 C 8.957031 10.949219 8.75 10.8125 8.511719 10.714844 C 8.277344 10.621094 8.035156 10.570312 7.777344 10.570312 Z M 5.859375 12.476562 C 5.859375 12.214844 5.953125 11.988281 6.140625 11.804688 C 6.328125 11.617188 6.554688 11.523438 6.820312 11.523438 L 7.777344 11.523438 C 7.863281 11.527344 7.945312 11.539062 8.023438 11.558594 L 5.894531 13.671875 C 5.871094 13.59375 5.859375 13.511719 5.859375 13.429688 Z M 8.738281 13.429688 C 8.738281 13.691406 8.644531 13.917969 8.457031 14.105469 C 8.269531 14.289062 8.042969 14.382812 7.777344 14.382812 L 6.820312 14.382812 C 6.734375 14.382812 6.652344 14.371094 6.574219 14.347656 L 8.703125 12.234375 C 8.726562 12.3125 8.738281 12.394531 8.738281 12.476562 Z M 8.738281 13.429688 " fill-opacity="1" fill-rule="nonzero"/><path fill="#2b1505" d="M 7.777344 16.765625 L 6.820312 16.765625 C 6.566406 16.765625 6.320312 16.8125 6.085938 16.910156 C 5.847656 17.007812 5.640625 17.144531 5.460938 17.324219 C 5.28125 17.5 5.144531 17.707031 5.046875 17.941406 C 4.949219 18.175781 4.898438 18.417969 4.898438 18.671875 L 4.898438 19.625 C 4.898438 19.875 4.949219 20.121094 5.046875 20.351562 C 5.144531 20.585938 5.28125 20.792969 5.460938 20.972656 C 5.640625 21.148438 5.847656 21.289062 6.085938 21.382812 C 6.320312 21.480469 6.566406 21.527344 6.820312 21.527344 L 7.777344 21.527344 C 8.035156 21.527344 8.277344 21.480469 8.511719 21.382812 C 8.75 21.289062 8.957031 21.148438 9.136719 20.972656 C 9.316406 20.792969 9.453125 20.585938 9.550781 20.351562 C 9.648438 20.121094 9.699219 19.875 9.699219 19.625 L 9.699219 18.671875 C 9.699219 18.417969 9.648438 18.175781 9.550781 17.941406 C 9.453125 17.707031 9.316406 17.5 9.136719 17.324219 C 8.957031 17.144531 8.75 17.007812 8.511719 16.910156 C 8.277344 16.8125 8.035156 16.765625 7.777344 16.765625 Z M 5.859375 18.671875 C 5.859375 18.40625 5.953125 18.183594 6.140625 17.996094 C 6.328125 17.8125 6.554688 17.71875 6.820312 17.71875 L 7.777344 17.71875 C 7.863281 17.71875 7.945312 17.730469 8.023438 17.753906 L 5.894531 19.867188 C 5.871094 19.789062 5.859375 19.707031 5.859375 19.625 Z M 8.738281 19.625 C 8.738281 19.886719 8.644531 20.109375 8.457031 20.296875 C 8.269531 20.484375 8.042969 20.578125 7.777344 20.578125 L 6.820312 20.578125 C 6.734375 20.574219 6.652344 20.5625 6.574219 20.539062 L 8.703125 18.425781 C 8.726562 18.507812 8.738281 18.589844 8.738281 18.671875 Z M 8.738281 19.625 " fill-opacity="1" fill-rule="nonzero"/><path fill="#2b1505" d="M 15.457031 13.429688 L 11.617188 13.429688 C 11.484375 13.429688 11.371094 13.476562 11.277344 13.570312 C 11.183594 13.664062 11.136719 13.773438 11.136719 13.90625 C 11.136719 14.039062 11.183594 14.148438 11.277344 14.242188 C 11.371094 14.335938 11.484375 14.382812 11.617188 14.382812 L 15.457031 14.382812 C 15.589844 14.382812 15.703125 14.335938 15.796875 14.242188 C 15.890625 14.148438 15.9375 14.039062 15.9375 13.90625 C 15.9375 13.773438 15.890625 13.664062 15.796875 13.570312 C 15.703125 13.476562 15.589844 13.429688 15.457031 13.429688 Z M 15.457031 13.429688 " fill-opacity="1" fill-rule="nonzero"/><path fill="#2b1505" d="M 15.457031 19.625 L 11.617188 19.625 C 11.484375 19.625 11.371094 19.671875 11.277344 19.761719 C 11.183594 19.855469 11.136719 19.96875 11.136719 20.101562 C 11.136719 20.230469 11.183594 20.34375 11.277344 20.4375 C 11.371094 20.53125 11.484375 20.578125 11.617188 20.578125 L 15.457031 20.578125 C 15.589844 20.578125 15.703125 20.53125 15.796875 20.4375 C 15.890625 20.34375 15.9375 20.230469 15.9375 20.101562 C 15.9375 19.96875 15.890625 19.855469 15.796875 19.761719 C 15.703125 19.671875 15.589844 19.625 15.457031 19.625 Z M 15.457031 19.625 " fill-opacity="1" fill-rule="nonzero"/><path fill="#2b1505" d="M 11.617188 12.476562 L 13.539062 12.476562 C 13.667969 12.476562 13.78125 12.429688 13.875 12.335938 C 13.96875 12.246094 14.015625 12.132812 14.015625 12 C 14.015625 11.871094 13.96875 11.757812 13.875 11.664062 C 13.78125 11.570312 13.667969 11.523438 13.539062 11.523438 L 11.617188 11.523438 C 11.484375 11.523438 11.371094 11.570312 11.277344 11.664062 C 11.183594 11.757812 11.136719 11.871094 11.136719 12 C 11.136719 12.132812 11.183594 12.246094 11.277344 12.335938 C 11.371094 12.429688 11.484375 12.476562 11.617188 12.476562 Z M 11.617188 12.476562 " fill-opacity="1" fill-rule="nonzero"/><path fill="#2b1505" d="M 11.617188 18.671875 L 13.539062 18.671875 C 13.667969 18.671875 13.78125 18.625 13.875 18.53125 C 13.96875 18.4375 14.015625 18.324219 14.015625 18.195312 C 14.015625 18.0625 13.96875 17.949219 13.875 17.855469 C 13.78125 17.765625 13.667969 17.71875 13.539062 17.71875 L 11.617188 17.71875 C 11.484375 17.71875 11.371094 17.765625 11.277344 17.855469 C 11.183594 17.949219 11.136719 18.0625 11.136719 18.195312 C 11.136719 18.324219 11.183594 18.4375 11.277344 18.53125 C 11.371094 18.625 11.484375 18.671875 11.617188 18.671875 Z M 11.617188 18.671875 " fill-opacity="1" fill-rule="nonzero"/></svg>