<svg xmlns="http://www.w3.org/2000/svg" xmlns:xlink="http://www.w3.org/1999/xlink" width="127" zoomAndPan="magnify" viewBox="0 0 95.25 96.75" height="129" preserveAspectRatio="xMidYMid meet" version="1.0"><defs><g/><clipPath id="c06e0b3e52"><path d="M 0 0.253906 L 94.503906 0.253906 L 94.503906 96.246094 L 0 96.246094 Z M 0 0.253906 " clip-rule="nonzero"/></clipPath><clipPath id="5413bf554c"><path d="M 3.425781 9.703125 L 91 9.703125 L 91 58 L 3.425781 58 Z M 3.425781 9.703125 " clip-rule="nonzero"/></clipPath></defs><g clip-path="url(#c06e0b3e52)"><path fill="#ffffff" d="M 0 0.253906 L 94.503906 0.253906 L 94.503906 96.246094 L 0 96.246094 Z M 0 0.253906 " fill-opacity="1" fill-rule="nonzero"/><path fill="#ffffff" d="M 0 0.253906 L 94.503906 0.253906 L 94.503906 96.246094 L 0 96.246094 Z M 0 0.253906 " fill-opacity="1" fill-rule="nonzero"/></g><g clip-path="url(#5413bf554c)"><path fill="#737373" d="M 71.625 19.359375 C 68.371094 19.359375 65.226562 20.171875 62.433594 21.699219 C 59.03125 14.53125 51.703125 9.703125 43.492188 9.703125 C 32.289062 9.703125 23.113281 18.546875 22.570312 29.617188 C 17.425781 30.226562 13.015625 33.644531 11.109375 38.410156 C 6.832031 39.480469 3.65625 43.351562 3.65625 47.953125 C 3.65625 53.378906 8.070312 57.789062 13.492188 57.789062 L 42.242188 57.789062 L 42.242188 42.320312 L 37.472656 42.320312 C 36.550781 42.320312 36.242188 41.265625 36.773438 40.628906 C 39.648438 37.175781 43.671875 33.71875 46.546875 30.265625 C 46.757812 30.011719 47.007812 29.917969 47.246094 29.933594 C 47.488281 29.917969 47.738281 30.011719 47.949219 30.265625 C 50.824219 33.71875 54.847656 37.175781 57.722656 40.628906 C 58.253906 41.265625 57.945312 42.320312 57.019531 42.320312 L 52.253906 42.320312 L 52.253906 57.789062 L 71.621094 57.789062 C 82.21875 57.789062 90.839844 49.167969 90.839844 38.574219 C 90.839844 27.980469 82.21875 19.359375 71.625 19.359375 Z M 71.625 19.359375 " fill-opacity="1" fill-rule="nonzero"/></g><g fill="#545454" fill-opacity="1"><g transform="translate(17.029857, 81.726977)"><g><path d="M 10.40625 -4.03125 C 10.40625 -2.71875 9.929688 -1.679688 8.984375 -0.921875 C 8.035156 -0.171875 6.722656 0.203125 5.046875 0.203125 C 3.492188 0.203125 2.125 -0.0859375 0.9375 -0.671875 L 0.9375 -3.53125 C 1.914062 -3.09375 2.742188 -2.785156 3.421875 -2.609375 C 4.097656 -2.429688 4.71875 -2.34375 5.28125 -2.34375 C 5.957031 -2.34375 6.472656 -2.472656 6.828125 -2.734375 C 7.191406 -2.992188 7.375 -3.378906 7.375 -3.890625 C 7.375 -4.171875 7.296875 -4.421875 7.140625 -4.640625 C 6.984375 -4.867188 6.75 -5.082031 6.4375 -5.28125 C 6.132812 -5.488281 5.507812 -5.816406 4.5625 -6.265625 C 3.675781 -6.679688 3.007812 -7.082031 2.5625 -7.46875 C 2.113281 -7.851562 1.757812 -8.300781 1.5 -8.8125 C 1.238281 -9.320312 1.109375 -9.914062 1.109375 -10.59375 C 1.109375 -11.882812 1.539062 -12.894531 2.40625 -13.625 C 3.28125 -14.363281 4.484375 -14.734375 6.015625 -14.734375 C 6.773438 -14.734375 7.492188 -14.640625 8.171875 -14.453125 C 8.859375 -14.273438 9.578125 -14.023438 10.328125 -13.703125 L 9.34375 -11.3125 C 8.5625 -11.632812 7.914062 -11.859375 7.40625 -11.984375 C 6.90625 -12.109375 6.410156 -12.171875 5.921875 -12.171875 C 5.335938 -12.171875 4.890625 -12.035156 4.578125 -11.765625 C 4.265625 -11.492188 4.109375 -11.140625 4.109375 -10.703125 C 4.109375 -10.429688 4.171875 -10.191406 4.296875 -9.984375 C 4.421875 -9.785156 4.617188 -9.59375 4.890625 -9.40625 C 5.171875 -9.21875 5.828125 -8.878906 6.859375 -8.390625 C 8.210938 -7.734375 9.140625 -7.078125 9.640625 -6.421875 C 10.148438 -5.773438 10.40625 -4.976562 10.40625 -4.03125 Z M 10.40625 -4.03125 "/></g></g></g><g fill="#545454" fill-opacity="1"><g transform="translate(28.236449, 81.726977)"><g><path d="M 13.65625 -14.515625 L 13.65625 -5.125 C 13.65625 -4.050781 13.410156 -3.109375 12.921875 -2.296875 C 12.441406 -1.492188 11.75 -0.875 10.84375 -0.4375 C 9.9375 -0.0078125 8.863281 0.203125 7.625 0.203125 C 5.757812 0.203125 4.3125 -0.273438 3.28125 -1.234375 C 2.25 -2.191406 1.734375 -3.503906 1.734375 -5.171875 L 1.734375 -14.515625 L 4.796875 -14.515625 L 4.796875 -5.625 C 4.796875 -4.507812 5.019531 -3.691406 5.46875 -3.171875 C 5.925781 -2.648438 6.671875 -2.390625 7.703125 -2.390625 C 8.710938 -2.390625 9.441406 -2.648438 9.890625 -3.171875 C 10.347656 -3.703125 10.578125 -4.53125 10.578125 -5.65625 L 10.578125 -14.515625 Z M 13.65625 -14.515625 "/></g></g></g><g fill="#545454" fill-opacity="1"><g transform="translate(43.615708, 81.726977)"><g><path d="M 1.828125 -14.515625 L 6.34375 -14.515625 C 8.40625 -14.515625 9.898438 -14.222656 10.828125 -13.640625 C 11.765625 -13.054688 12.234375 -12.125 12.234375 -10.84375 C 12.234375 -9.976562 12.023438 -9.265625 11.609375 -8.703125 C 11.203125 -8.148438 10.664062 -7.816406 10 -7.703125 L 10 -7.609375 C 10.914062 -7.398438 11.578125 -7.015625 11.984375 -6.453125 C 12.390625 -5.890625 12.59375 -5.144531 12.59375 -4.21875 C 12.59375 -2.882812 12.113281 -1.847656 11.15625 -1.109375 C 10.195312 -0.367188 8.898438 0 7.265625 0 L 1.828125 0 Z M 4.90625 -8.765625 L 6.6875 -8.765625 C 7.53125 -8.765625 8.132812 -8.894531 8.5 -9.15625 C 8.875 -9.414062 9.0625 -9.84375 9.0625 -10.4375 C 9.0625 -11 8.859375 -11.398438 8.453125 -11.640625 C 8.046875 -11.878906 7.40625 -12 6.53125 -12 L 4.90625 -12 Z M 4.90625 -6.328125 L 4.90625 -2.546875 L 6.90625 -2.546875 C 7.757812 -2.546875 8.382812 -2.707031 8.78125 -3.03125 C 9.1875 -3.351562 9.390625 -3.847656 9.390625 -4.515625 C 9.390625 -5.722656 8.53125 -6.328125 6.8125 -6.328125 Z M 4.90625 -6.328125 "/></g></g></g><g fill="#545454" fill-opacity="1"><g transform="translate(57.28616, 81.726977)"><g><path d="M 1.828125 0 L 1.828125 -14.515625 L 4.90625 -14.515625 L 4.90625 0 Z M 1.828125 0 "/></g></g></g><g fill="#545454" fill-opacity="1"><g transform="translate(64.022036, 81.726977)"><g><path d="M 4.90625 -8.078125 L 5.90625 -8.078125 C 6.875 -8.078125 7.585938 -8.238281 8.046875 -8.5625 C 8.515625 -8.882812 8.75 -9.394531 8.75 -10.09375 C 8.75 -10.78125 8.507812 -11.269531 8.03125 -11.5625 C 7.5625 -11.851562 6.832031 -12 5.84375 -12 L 4.90625 -12 Z M 4.90625 -5.578125 L 4.90625 0 L 1.828125 0 L 1.828125 -14.515625 L 6.0625 -14.515625 C 8.03125 -14.515625 9.488281 -14.15625 10.4375 -13.4375 C 11.382812 -12.71875 11.859375 -11.628906 11.859375 -10.171875 C 11.859375 -9.316406 11.625 -8.554688 11.15625 -7.890625 C 10.6875 -7.222656 10.019531 -6.703125 9.15625 -6.328125 C 11.34375 -3.066406 12.769531 -0.957031 13.4375 0 L 10.015625 0 L 6.546875 -5.578125 Z M 4.90625 -5.578125 "/></g></g></g></svg>